<svg id="레이어_1" height="512" viewBox="0 0 512 512" width="512" xmlns="http://www.w3.org/2000/svg"><path d="m256.002 481.501c-.001 0-.003 0-.004 0-.039 0-.077 0-.116-.001-92.03-.064-166.882-74.955-166.882-167 0-38.142 27.551-97.322 81.888-175.896 39.773-57.516 80.08-104.908 81.287-106.324.066-.08.136-.157.208-.231 0-.001.001-.001.002-.002.003-.003.005-.005.008-.008.002-.002.004-.004.006-.006.001-.001.003-.003.004-.004.002-.003.005-.006.008-.009 0 0 .001-.001.001-.001.059-.061.119-.119.18-.176.001-.001.002-.002.003-.003.002-.002.005-.004.007-.007.002-.002.004-.004.007-.006.001-.001.002-.002.004-.003.882-.813 2.059-1.312 3.351-1.321.001-.001.01 0 .016 0h.02c.006 0 .014.001.02 0 .005 0 .006-.001.016 0 1.293.009 2.469.508 3.352 1.321.001.001.002.002.004.003.002.002.004.004.007.006.002.002.004.004.007.007.001.001.002.002.003.003.062.057.122.116.181.176 0 0 .001.001.001.001.003.003.006.006.009.009.001.001.002.003.004.004.002.002.004.004.006.006.003.003.006.005.008.008.001.001.002.001.003.002.071.075.141.152.207.231 1.207 1.416 41.514 48.808 81.287 106.324 54.334 78.574 81.885 137.754 81.885 175.896 0 92.045-74.853 166.936-166.882 167-.039.001-.077.001-.116.001zm124.577-71.556-103.608 60.16c42.067-5.637 78.912-28.003 103.608-60.16zm-249.158 0c24.697 32.156 61.541 54.522 103.608 60.16zm279.93-112.055-133.405 160.086 115.018-66.784c12.757-22.694 20.036-48.857 20.036-76.692 0-5.197-.572-10.75-1.649-16.61zm-292.313 93.301 115.017 66.784-133.405-160.084c-1.077 5.858-1.65 11.413-1.65 16.609 0 27.835 7.28 53.998 20.038 76.691zm266.776-160.552-105.566 208.953 128.264-153.917c-4.665-16.862-12.68-35.609-22.698-55.036zm-282.325 55.037 128.263 153.916-105.563-208.949c-10.019 19.426-18.034 38.173-22.7 55.033zm248.708-112.428-75.155 250.516 103.031-203.938c-8.427-15.445-17.942-31.175-27.876-46.578zm-220.267 46.582 103.029 203.934-75.153-250.511c-9.935 15.404-19.45 31.132-27.876 46.577zm176.989-108.934-39.926 304.894 76.044-253.48c-12.028-18.123-24.44-35.599-36.118-51.414zm-141.954 51.418 76.043 253.476-39.926-304.889c-11.678 15.816-24.09 33.29-36.117 51.413zm94.035-112.991v350.488l39.34-300.417c-16.418-21.796-30.684-39.528-39.34-50.071zm-49.34 50.075 39.34 300.413v-350.487c-8.655 10.543-22.921 28.276-39.34 50.074z" fill="rgb(0,0,0)"/></svg>