<svg id="레이어_1" height="512" viewBox="0 0 512 512" width="512" xmlns="http://www.w3.org/2000/svg"><path d="m255.99 463.491c-.913 0-1.826-.245-2.621-.732l-175.444-107.967c-1.509-.904-2.457-2.601-2.434-4.357v-188.87c-.022-1.759.924-3.456 2.434-4.357l175.39-107.933c1.697-1.074 3.955-1.017 5.591.148 0 0 174.769 107.549 174.932 107.65 1.706 1.05 2.842 2.83 2.653 4.877v188.55c0 1.719-.917 3.359-2.38 4.259 0 0-175.382 107.928-175.5 108-.795.489-1.708.733-2.621.732zm-55.056-107.991 55.056 93.172 55.056-93.172zm121.727 0-52.093 88.158 143.257-88.158zm-224.505 0 143.257 88.158-52.094-88.158zm230.415-10h94.157l-47.078-79.672zm-133.545 0h121.93l52.887-89.5-52.887-89.5h-121.93l-52.887 89.5zm-105.773 0h94.157l-47.079-79.672zm292.204-89.5 45.033 76.21v-152.42zm-295.967-76.21v152.42l45.034-76.21zm243.081-13.29 47.079 79.671 47.078-79.671zm-239.318 0 47.079 79.671 47.078-79.671zm233.408-10h91.164l-143.256-88.158zm-121.727 0h110.112l-55.056-93.171zm-102.778 0h91.164l52.093-88.158z" fill="rgb(0,0,0)"/></svg>